M48
;GenerationSoftware,Autodesk,EAGLE,9.5.1*%
;CreationDate,2023-01-22T21:23:50Z*%
FMAT,2
ICI,OFF
METRIC,TZ,000.000
T20C0.300
T19C0.350
T18C0.500
T17C0.800
T16C0.900
T15C0.914
T14C0.965
T13C1.000
T12C1.016
T11C1.100
T10C1.500
T9C1.575
T8C1.600
T7C1.702
T6C1.714
T5C1.800
T4C1.850
T3C2.000
T2C2.300
T1C4.000
%
G90
M71
T1
X377000Y76000
X417000Y76000
X417000Y96000
X397000Y76000
X397000Y96000
X377000Y96000
T2
X477500Y70400
X477500Y89600
T3
X228500Y80000
X446000Y91500
X456100Y93200
X295000Y19900
X453000Y65000
T4
X332575Y37910
X316825Y41090
X316825Y116090
X332575Y112910
X316825Y37910
X332575Y116090
X320000Y64500
X320000Y114500
X329400Y64500
X332575Y41090
X329400Y114500
X324700Y64500
X324700Y114500
X316825Y87910
X316825Y91090
X332575Y87910
X332575Y91090
X320000Y89500
X329400Y89500
X324700Y89500
X316825Y62910
X316825Y66090
X332575Y62910
X332575Y66090
X316825Y112910
X324700Y39500
X329400Y39500
X320000Y39500
T5
X480000Y73000
X480000Y87000
T6
X417000Y101080
X417000Y90920
X397000Y81080
X397000Y70920
X397000Y90920
X377000Y101080
X377000Y90920
X377000Y81080
X377000Y70920
X397000Y101080
X417000Y81080
X417000Y70920
T7
X397460Y37540
X397460Y32460
X402540Y32460
X382540Y32460
X292460Y112540
X297540Y112540
X292460Y107460
X297540Y107460
X292460Y87540
X357460Y37540
X357460Y32460
X297540Y87540
X297540Y37540
X362540Y32460
X292460Y37540
X292460Y32460
X297540Y32460
X297540Y82460
X292460Y62540
X292460Y82460
X297540Y62540
X292460Y57460
X362540Y37540
X377460Y32460
X297540Y57460
X402540Y37540
X382540Y37540
X377460Y37540
T8
X243430Y108430
X236570Y108430
X236570Y101570
X243430Y101570
X43430Y58430
X36570Y58430
X36570Y51570
X43430Y51570
X83430Y58430
X76570Y51570
X83430Y51570
X123430Y58430
X116570Y58430
X116570Y51570
X123430Y51570
X163430Y58430
X156570Y58430
X156570Y51570
X163430Y51570
X76570Y58430
X196570Y108430
X479900Y106000
X472900Y106000
X43430Y108430
X36570Y108430
X36570Y101570
X43430Y101570
X83430Y108430
X76570Y108430
X76570Y101570
X83430Y101570
X203430Y58430
X196570Y58430
X196570Y51570
X203430Y51570
X243430Y58430
X236570Y58430
X236570Y51570
X243430Y51570
X196570Y101570
X123430Y108430
X116570Y108430
X116570Y101570
X123430Y101570
X203430Y101570
X163430Y108430
X156570Y108430
X156570Y101570
X163430Y101570
X203430Y108430
T9
X295000Y35000
X400000Y35000
X295000Y85000
X360000Y35000
X295000Y60000
X295000Y110000
X380000Y35000
T10
X391920Y98540
X414460Y72190
X394460Y72190
X391920Y78540
X374460Y72190
X371920Y78540
X414460Y92190
X411920Y98540
X371920Y98540
X374460Y92190
X394460Y92190
X411920Y78540
T11
X356100Y140080
X330700Y140080
X333240Y140080
X335780Y140080
X338320Y140080
X340860Y140080
X343400Y140080
X345940Y140080
X348480Y140080
X351020Y140080
X353560Y140080
X393290Y135000
X390750Y135000
X395830Y135000
X398370Y135000
X400910Y135000
X403450Y135000
X405990Y135000
X408530Y135000
X411070Y135000
X390750Y140080
X393290Y140080
X395830Y140080
X398370Y140080
X400910Y140080
X403450Y140080
X405990Y140080
X408530Y140080
X411070Y140080
X448340Y135000
X445800Y135000
X450880Y135000
X453420Y135000
X455960Y135000
X458500Y135000
X461040Y135000
X463580Y135000
X466120Y135000
X445800Y140080
X448340Y140080
X450880Y140080
X453420Y140080
X455960Y140080
X458500Y140080
X461040Y140080
X463580Y140080
X466120Y140080
X320540Y135000
X318000Y135000
X323080Y135000
X325620Y135000
X328160Y135000
X330700Y135000
X333240Y135000
X335780Y135000
X338320Y135000
X318000Y140080
X340860Y135000
X343400Y135000
X345940Y135000
X348480Y135000
X351020Y135000
X353560Y135000
X356100Y135000
X320540Y140080
X323080Y140080
X325620Y140080
X328160Y140080
T12
X284630Y133830
X287170Y136370
X440390Y136370
X440390Y133830
X437850Y136370
X437850Y133830
X435310Y136370
X435310Y133830
X432770Y136370
X432770Y133830
X430230Y136370
X430230Y133830
X427690Y136370
X427690Y133830
X425150Y136370
X425150Y133830
X422610Y136370
X422610Y133830
X382800Y133830
X380260Y136370
X380260Y133830
X377720Y136370
X375180Y136370
X375180Y133830
X372640Y136370
X372640Y133830
X370100Y136370
X370100Y133830
X367560Y136370
X284630Y136370
X367560Y133830
X385340Y136370
X385340Y133830
X377720Y133830
X382800Y136370
X312570Y136370
X312570Y133830
X310030Y136370
X310030Y133830
X307490Y136370
X307490Y133830
X304950Y136370
X304950Y133830
X302410Y136370
X302410Y133830
X299870Y136370
X299870Y133830
X297330Y136370
X297330Y133830
X294790Y136370
X287170Y133830
X294790Y133830
X292250Y136370
X292250Y133830
X289710Y136370
X289710Y133830
T13
X285000Y25000
X435800Y105500
T14
X464730Y113680
X467270Y113680
X469810Y113680
X472350Y113680
X474890Y113680
X477430Y113680
X482510Y128920
X479970Y128920
X477430Y128920
X474890Y128920
X472350Y128920
X469810Y128920
X467270Y128920
X464730Y128920
X462190Y128920
X459650Y128920
X457110Y128920
X454570Y128920
X452030Y128920
X449490Y128920
X479970Y113680
X482510Y113680
X449490Y113680
X452030Y113680
X454570Y113680
X457110Y113680
X459650Y113680
X462190Y113680
T15
X398900Y126740
X398900Y124200
T16
X160000Y55000
X240000Y105000
X80000Y55000
X40000Y55000
X120000Y55000
X160000Y105000
X200000Y105000
X120000Y105000
X240000Y55000
X200000Y55000
X80000Y105000
X40000Y105000
T17
X481270Y26270
X481270Y23730
X478730Y23730
X478730Y26270
X480000Y25000
X480000Y45000
X481270Y51270
X481270Y48730
X478730Y48730
X478730Y51270
X480000Y50000
X481270Y56270
X481270Y53730
X478730Y46270
X478730Y53730
X478730Y56270
X480000Y55000
X481270Y61270
X481270Y58730
X478730Y58730
X478730Y43730
X481270Y43730
X481270Y33730
X481270Y36270
X478730Y61270
X478730Y33730
X478730Y36270
X480000Y35000
X481270Y46270
X481270Y31270
X481270Y28730
X478730Y28730
X478730Y31270
X480000Y30000
X480000Y60000
T18
X262000Y105000
X58000Y55000
X98000Y55000
X138000Y55000
X178000Y55000
X100000Y61500
X268000Y55000
X443700Y101200
X444600Y101200
X443700Y102000
X440900Y76400
X329000Y31000
X324400Y29500
X324500Y54000
X60000Y61500
X140000Y61500
X180000Y61500
X268000Y60000
X210000Y48000
X130000Y48000
X218000Y55000
X309171Y115500
X357500Y101500
X357500Y97500
X357500Y93500
X357500Y89500
X357500Y84500
X357500Y81500
X357500Y77500
X348000Y82500
X348000Y102500
X348000Y98500
X348000Y94500
X348000Y90500
X348000Y87000
X348000Y79000
X344500Y77500
X41500Y30475
X81500Y30475
X121500Y30475
X161500Y30475
X201500Y30475
X241500Y30475
X344500Y81500
X309200Y40475
X437800Y74900
X344500Y89500
X344500Y93500
X344500Y101500
X353000Y105500
X357500Y105500
X348000Y105500
X344500Y105500
X447700Y101100
X448600Y101100
X448600Y101900
X260000Y98500
X218000Y100500
X178000Y100500
X138000Y100500
X100000Y98500
X220000Y61500
X470600Y72700
X60000Y98500
X50000Y48000
X309200Y65475
X309200Y90475
X344500Y84800
X58000Y105000
X98000Y105000
X138000Y105000
X148000Y95000
X178000Y105000
X191000Y92000
X218000Y105000
X344500Y97500
X468800Y79098
X324500Y103500
X327602Y103500
X324500Y78500
X327500Y78500
X327500Y53500
X318900Y47700
X318800Y72700
X234000Y89000
X318500Y97200
X318900Y22500
X81500Y129500
X121500Y129500
X161500Y129500
X201500Y129500
X241500Y129500
X41000Y128500
X10000Y77000
X453500Y102346
T19
X471700Y71300
X472800Y88600
X472700Y71300
X471800Y88600
X477600Y120800
X471100Y115000
X473600Y71300
X473200Y116000
X473600Y88600
T20
X391000Y49000
X394000Y49000
X397000Y49000
X400000Y49000
X403000Y49000
X406000Y49000
X409000Y49000
X412000Y49000
X415000Y49000
X418000Y49000
X421000Y49000
X424000Y49000
X427000Y49000
X430000Y49000
X433000Y49000
X436000Y49000
X439000Y49000
X442000Y49000
X445000Y49000
X448000Y49000
X451000Y49000
X454000Y49000
X457000Y49000
X460000Y49000
X463000Y49000
X466000Y49000
X469000Y49000
X472000Y49000
X350000Y51000
X353000Y51000
X356000Y51000
X359000Y51000
X362000Y51000
X365000Y51000
X368000Y51000
X371000Y51000
X374000Y51000
X377000Y51000
X380000Y51000
X383000Y51000
X386000Y51000
X389000Y51000
X392000Y51000
X395000Y51000
X398000Y51000
X401000Y51000
X404000Y51000
X407000Y51000
X410000Y51000
X413000Y51000
X416000Y51000
X419000Y51000
X422000Y51000
X425000Y51000
X428000Y51000
X431000Y51000
X434000Y51000
X437000Y51000
X440000Y51000
X443000Y51000
X446000Y51000
X449000Y51000
X452000Y51000
X455000Y51000
X458000Y51000
X461000Y51000
X464000Y51000
X467000Y51000
X470000Y51000
X349000Y54000
X352000Y54000
X355000Y54000
X358000Y54000
X361000Y54000
X364000Y54000
X367000Y54000
X370000Y54000
X373000Y54000
X376000Y54000
X379000Y54000
X382000Y54000
X385000Y54000
X388000Y54000
X391000Y54000
X394000Y54000
X397000Y54000
X400000Y54000
X403000Y54000
X406000Y54000
X409000Y54000
X412000Y54000
X415000Y54000
X418000Y54000
X421000Y54000
X424000Y54000
X427000Y54000
X430000Y54000
X433000Y54000
X436000Y54000
X439000Y54000
X442000Y54000
X445000Y54000
X448000Y54000
X451000Y54000
X454000Y54000
X457000Y54000
X460000Y54000
X463000Y54000
X466000Y54000
X469000Y54000
X472000Y54000
X350000Y56000
X353000Y56000
X356000Y56000
X359000Y56000
X362000Y56000
X365000Y56000
X368000Y56000
X371000Y56000
X374000Y56000
X377000Y56000
X380000Y56000
X383000Y56000
X386000Y56000
X389000Y56000
X392000Y56000
X395000Y56000
X398000Y56000
X401000Y56000
X404000Y56000
X407000Y56000
X410000Y56000
X413000Y56000
X416000Y56000
X419000Y56000
X422000Y56000
X425000Y56000
X428000Y56000
X431000Y56000
X434000Y56000
X437000Y56000
X440000Y56000
X443000Y56000
X446000Y56000
X449000Y56000
X452000Y56000
X455000Y56000
X458000Y56000
X461000Y56000
X464000Y56000
X467000Y56000
X470000Y56000
X346000Y49000
X343000Y49000
X340000Y49000
X337000Y49000
X347000Y51000
X344000Y51000
X341000Y51000
X338000Y51000
X347000Y46000
X346000Y44000
X334000Y49000
X331000Y49000
X332500Y51000
X324000Y54800
X341300Y57400
X342600Y56300
X343900Y54700
X345600Y53600
X347200Y53700
X343400Y59000
X344600Y57700
X346200Y56400
X348100Y56000
X335400Y63300
X337000Y70200
X335300Y72700
X331600Y76700
X329900Y74900
X328700Y76100
X375400Y23900
X378400Y23900
X381400Y23900
X384400Y23900
X387400Y23900
X390400Y23900
X393400Y23900
X396400Y23900
X399400Y23900
X402400Y23900
X405400Y23900
X408400Y23900
X411400Y23900
X414400Y23900
X417400Y23900
X419000Y22200
X423200Y20000
X426200Y20000
X429200Y20000
X432200Y20000
X435200Y20000
X438200Y20000
X441200Y20000
X444200Y20000
X447200Y20000
X450200Y20000
X453200Y20000
X456200Y20000
X459200Y20000
X462200Y20000
X465200Y20000
X468200Y20000
X471200Y20000
X474400Y23900
X373400Y25900
X376400Y25900
X379400Y25900
X382400Y25900
X385400Y25900
X388400Y25900
X391400Y25900
X394400Y25900
X397400Y25900
X400400Y25900
X403400Y25900
X406400Y25900
X409400Y25900
X412400Y25900
X415400Y25900
X418400Y25900
X420200Y24600
X424200Y22000
X427200Y22000
X430200Y22000
X433200Y22000
X436200Y22000
X439200Y22000
X442200Y22000
X445200Y22000
X448200Y22000
X451200Y22000
X454200Y22000
X457200Y22000
X460200Y22000
X463200Y22000
X466200Y22000
X469200Y22000
X472200Y22000
X374900Y27700
X373000Y29500
X371200Y31300
X369700Y32900
X368000Y34600
X366100Y36200
X365500Y33400
X367400Y31800
X368900Y30400
X370200Y29000
X371700Y27300
X416900Y38500
X419900Y38500
X422900Y38500
X425900Y38500
X428900Y38500
X431900Y38500
X434900Y38500
X437900Y38500
X440900Y38500
X443900Y38500
X446900Y38500
X449900Y38500
X452900Y38500
X455900Y38500
X458900Y38500
X461900Y38500
X464900Y38500
X467900Y38500
X470900Y38500
X417900Y40500
X420900Y40500
X423900Y40500
X426900Y40500
X429900Y40500
X432900Y40500
X435900Y40500
X438900Y40500
X441900Y40500
X444900Y40500
X447900Y40500
X450900Y40500
X453900Y40500
X456900Y40500
X459900Y40500
X462900Y40500
X465900Y40500
X468900Y40500
X471900Y40500
X392600Y27900
X395600Y27900
X398600Y27900
X401600Y27900
X404600Y27900
X407600Y27900
X410600Y27900
X413600Y27900
X416600Y27900
X419600Y27900
X422600Y27900
X425600Y27900
X430100Y24000
X433100Y24000
X436100Y24000
X439100Y24000
X442100Y24000
X445100Y24000
X448100Y24000
X451100Y24000
X454100Y24000
X457100Y24000
X460100Y24000
X463100Y24000
X466100Y24000
X469100Y24000
X472100Y24000
X393600Y29900
X396600Y29900
X399600Y29900
X402600Y29900
X405600Y29900
X408600Y29900
X411600Y29900
X414600Y29900
X417600Y29900
X420600Y29900
X423600Y29900
X428100Y26000
X431100Y26000
X434100Y26000
X440100Y26000
X443100Y26000
X446100Y26000
X449100Y26000
X452100Y26000
X455100Y26000
X458100Y26000
X461100Y26000
X464100Y26000
X470100Y26000
X476100Y26000
X390200Y28600
X388600Y30200
X387400Y31600
X385700Y33200
X391500Y31300
X390300Y32700
X388800Y34000
X387600Y35500
X385600Y36500
X406600Y36500
X409600Y36800
X411700Y38100
X413500Y40000
X415100Y37500
X413300Y35800
X411100Y33700
X407600Y33500
X405300Y33500
X475200Y40300
X477000Y38000
X475400Y35400
X473400Y37700
X474900Y44100
X472900Y46100
X475900Y46100
X474900Y49100
X472900Y51100
X475900Y51100
X474900Y54100
X472900Y56100
X475900Y56100
X342100Y46000
X339700Y46000
X338300Y42200
X337700Y44900
X335500Y42000
X335400Y39300
X338200Y38100
X338100Y36400
X338200Y40200
X336600Y43900
X441300Y106000
X442200Y105900
X442400Y104860
X442300Y101300
X446100Y101100
X441100Y101200
X450500Y107100
X450000Y100900
X420600Y20600
X421800Y23000
X473600Y20000
X475200Y21300
X476600Y22700
X437100Y26000
X427100Y24000
X467100Y26000
X425100Y24600
X423800Y26400
X471900Y26900
X473600Y28400
X475300Y30300
X476800Y28300
X475700Y26700
X474000Y25300
X415500Y40500
X460400Y110200
X466800Y105300
X466800Y110100
X457100Y109900
X462900Y109900
X360500Y24500
X351300Y22700
X349300Y30300
X351200Y38900
X371400Y40400
X390700Y40400
X407300Y40400
X423900Y34200
X451900Y32700
X467200Y64800
X448600Y66500
X424900Y64200
X386000Y91800
X366300Y80000
X392900Y128300
X374200Y122900
X470400Y141600
X445900Y115600
X447000Y120500
X447000Y124500
X447100Y128500
X437900Y117300
X437900Y121300
X437900Y125300
X437900Y127370
X454700Y122100
X458600Y122100
X462200Y122100
X465800Y122100
X469310Y122100
X472940Y122100
X477200Y135600
X481600Y135700
X474400Y139300
X459500Y143600
X446700Y143600
X420600Y142600
X401400Y142800
X370500Y142600
X369800Y129200
X452300Y119600
X450900Y90600
X352100Y82400
X362500Y97800
X387600Y143400
X444100Y107600
X444700Y108000
X443400Y108300
X447800Y107800
X448700Y108000
X450600Y106100
X452800Y123500
X463400Y130900
X469900Y130800
X471400Y131200
X466300Y130700
X469200Y137100
X482900Y126500
X482300Y131700
X430200Y131000
X431000Y127700
X430900Y123700
X425400Y123300
X400600Y121300
X394500Y121600
X388500Y127700
X468400Y92000
X467800Y93800
X466600Y99400
X477600Y100100
X482800Y101300
X480600Y82400
X479400Y79200
X476400Y87600
X475500Y91000
X454800Y95700
X462500Y103700
X454400Y111700
X476100Y109900
X468500Y111100
X468300Y115800
X480900Y120900
X453600Y104600
X453500Y106400
X464300Y89700
X467300Y92100
X473500Y93500
X473400Y89900
X360000Y98800
X354500Y98800
X354500Y102800
X345500Y97000
X346000Y102500
X346000Y90500
X346000Y83500
X352400Y76100
X354000Y79100
X353500Y89500
X351500Y93000
X353500Y96000
X351500Y98000
X353000Y99000
X361500Y75500
X359500Y81200
X361500Y91000
X361000Y103000
X340500Y103500
X341000Y96500
X341000Y79500
X343500Y74000
X351100Y72500
X15500Y40500
X15500Y50500
X15500Y60500
X15500Y70500
X15500Y80500
X15500Y90500
X15500Y100500
X15500Y110500
X15500Y119500
X25500Y119500
X35500Y119500
X45500Y119500
X55500Y119500
X65500Y119500
X75500Y119500
X85500Y119500
X95500Y119500
X105500Y119500
X115500Y119500
X125500Y119500
X135500Y119500
X145500Y119500
X155500Y119500
X165500Y119500
X175500Y119500
X185500Y119500
X195500Y119500
X205500Y119500
X215500Y119500
X225500Y119500
X235500Y119500
X25500Y40500
X35500Y40500
X45500Y40500
X55500Y40500
X65500Y40500
X75500Y40500
X85500Y40500
X95500Y40500
X105500Y40500
X115500Y40500
X125500Y40500
X135500Y40500
X145500Y40500
X155500Y40500
X165500Y40500
X175500Y40500
X185500Y40500
X195500Y40500
X205500Y40500
X215500Y40500
X225500Y40500
X235500Y40500
X245500Y40500
X15500Y139500
X25500Y139500
X35500Y139500
X45500Y139500
X55500Y139500
X75500Y139500
X85500Y139500
X340500Y70000
X105500Y139500
X125500Y139500
X135500Y139500
X145500Y139500
X155500Y139500
X175500Y139500
X185500Y139500
X195500Y139500
X205500Y139500
X220500Y139500
X235500Y139500
X5500Y70500
X5500Y90500
X5500Y100500
X5500Y110500
X5500Y119500
X5500Y129500
X5500Y60500
X5500Y50500
X5500Y40500
X5500Y27500
X25500Y20500
X15500Y20500
X35500Y20500
X245500Y129500
X45500Y20500
X55500Y20500
X75500Y20500
X85500Y20500
X95500Y20500
X105500Y20500
X125500Y20500
X135500Y20500
X145500Y20500
X155500Y20500
X175500Y20500
X185500Y20500
X195500Y20500
X205500Y20500
X225500Y20500
X235500Y20500
X245500Y20500
X255500Y40500
X265500Y40500
X275500Y40500
X285500Y40500
X275500Y20500
X255500Y20500
X422500Y120600
X411000Y120500
X295000Y75000
X327000Y31700
X321000Y31700
X321800Y30700
X356900Y67400
X376800Y64500
X345300Y34400
X339000Y55100
X384600Y100800
X405100Y101900
X405900Y92400
X406700Y79800
X406200Y70700
X384700Y70300
X384500Y79700
X369500Y70800
X437400Y33000
X378200Y129600
X374100Y127700
X416700Y140500
X422900Y139600
X442900Y143900
X474200Y131600
X461200Y137600
X447800Y136700
X434100Y140100
X439300Y140400
X414900Y135100
X418000Y133700
X383700Y129700
X425000Y117000
X428000Y113000
X431000Y109000
X436000Y101000
X437000Y92000
X438000Y90000
X460000Y90000
X452000Y77000
X457000Y77000
X466000Y77000
X363000Y107000
X372000Y107000
X387000Y107000
X408000Y107000
X420000Y100000
X421000Y91000
X347000Y110000
X343000Y115000
X433000Y77000
X246500Y138500
X246000Y120000
X444300Y94300
X445000Y94200
X450500Y100000
X450400Y102700
X479500Y109600
X475100Y120300
X475900Y120300
X482100Y115900
X481300Y115900
X478600Y118100
X462000Y75000
X341500Y73000
X339000Y71500
X444500Y98400
X444300Y99200
X442900Y99300
X447700Y98400
X448100Y99100
X441000Y100200
X441000Y99300
X447000Y98300
X336600Y74600
X340500Y62000
X342000Y60500
X450300Y99100
X470700Y79700
X340000Y58700
X470200Y80300
X338500Y64000
X470700Y80900
X338500Y60000
X336700Y61800
X470200Y81600
X335500Y51000
X337000Y65500
X470700Y82200
X335000Y65500
X343700Y44000
X470200Y82800
X341600Y44000
X470700Y83500
X339800Y43600
X470200Y84100
X337000Y35000
X470700Y84800
X335000Y37000
X470200Y85400
X339000Y76000
X470700Y86100
X339000Y80000
X470200Y86700
X339000Y83000
X468400Y120200
X457600Y118500
X338910Y85930
X339000Y89000
X461000Y108000
X466800Y107700
X446900Y118300
X445800Y123200
X447000Y126340
X445800Y131100
X437800Y123200
X436800Y126900
X437800Y129600
X437800Y119250
X456900Y121800
X460500Y121800
X464100Y121800
X467700Y121700
X471300Y121900
X474900Y122000
X479200Y121000
X482900Y121000
X339200Y91400
X435100Y76400
X336000Y83000
X445900Y76400
X449800Y73721
X451600Y111300
X453400Y107700
X423900Y127400
X427900Y126900
X459890Y118975
X459925Y117875
X464800Y110900
X459800Y110800
X459100Y111200
X336000Y77000
X301000Y111000
X301000Y109000
X440800Y70300
X329800Y108400
X323800Y108500
X320600Y107100
X434100Y68230
X321700Y33200
X328000Y33200
X318800Y31800
X323600Y58298
X329700Y58300
X320600Y57100
X434700Y69900
X320600Y82000
X324228Y83598
X329700Y83200
X434700Y71042
X21000Y105000
X315500Y109500
X317500Y107500
X313000Y107500
X315000Y105500
X301000Y61000
X301000Y59000
X313000Y58000
X315000Y55500
X315000Y59500
X21000Y114000
X403000Y118000
X393000Y118000
X383000Y118000
X373000Y118000
X408300Y109700
X401300Y109700
X391300Y109700
X381300Y109700
X371300Y109700
X361300Y109700
X354300Y109700
X349300Y114700
X345300Y118700
X364000Y121500
X363700Y131800
X344100Y119900
X347900Y116000
X352200Y111300
X321200Y129100
X340500Y121400
X329600Y120700
X311200Y126700
X306500Y121300
X299000Y120000
X284000Y110000
X284000Y98000
X284000Y86000
X284000Y76000
X284000Y67000
X284000Y59000
X284000Y49000
X283000Y139000
X328400Y143940
X337000Y144020
X352000Y144030
X325600Y124600
X314600Y129200
X317000Y120500
X331000Y123400
X363300Y143900
X317000Y57500
X301000Y34000
X363900Y127200
X363400Y138800
X324100Y120500
X334600Y121400
X312700Y122100
X316200Y125300
X412800Y109800
X416100Y107900
X419200Y104600
X421900Y102100
X423300Y100400
X423400Y96500
X423400Y92800
X423400Y88800
X425300Y86300
X428100Y83300
X431100Y80300
X433000Y79200
X436600Y79300
X441300Y79300
X446900Y79400
X452500Y79400
X458400Y79400
X464400Y79500
X468500Y87700
X463500Y87700
X456300Y87800
X449000Y87700
X443100Y87700
X437300Y87700
X433400Y91500
X433300Y96900
X433200Y100200
X431800Y104400
X429000Y107400
X425500Y110700
X422000Y114400
X417700Y118300
X411500Y118200
X366500Y118500
X21000Y95000
X21000Y85000
X21000Y75000
X21000Y65000
X21000Y55000
X21000Y46000
X30000Y46000
X40000Y46000
X50000Y46000
X60000Y46000
X30000Y114000
X40000Y114000
X50000Y114000
X60000Y114000
X70000Y114000
X80000Y114000
X90000Y114000
X100000Y114000
X110000Y114000
X120000Y114000
X130000Y114000
X140000Y114000
X150000Y114000
X160000Y114000
X170000Y114000
X180000Y114000
X190000Y114000
X200000Y114000
X210000Y114000
X220000Y114000
X230000Y114000
X240000Y114000
X250000Y114000
X260000Y117000
X267000Y124000
X70000Y46000
X80000Y46000
X90000Y46000
X100000Y46000
X110000Y46000
X120000Y46000
X130000Y46000
X140000Y46000
X150000Y46000
X160000Y46000
X170000Y46000
X180000Y46000
X190000Y46000
X200000Y46000
X210000Y46000
X220000Y46000
X230000Y46000
X240000Y46000
X250000Y46000
X260000Y46000
X270000Y46000
X280000Y46000
X273000Y130000
X287400Y142000
X376300Y109700
X386300Y109700
X396300Y109700
X366300Y109700
X358300Y109700
X364300Y118700
X378500Y118500
X388500Y118500
X398500Y118500
X407500Y118500
X414500Y118500
X420000Y116400
X424000Y112400
X427000Y109400
X433000Y103400
X433400Y93500
X433400Y95500
X453000Y87700
X460000Y87700
X446000Y87700
X441100Y87700
X444300Y79300
X449300Y79300
X455500Y79400
X461400Y79400
X405300Y109700
X278000Y135000
X301000Y86000
X301000Y84000
X313000Y82500
X315000Y80500
X315000Y84500
X317000Y82500
X270000Y110000
X292900Y143900
X265300Y91200
X245400Y80600
X218400Y87500
X193800Y80800
X171400Y88200
X130700Y92000
X96800Y83300
X62900Y90800
X28600Y89800
X27900Y68500
X336600Y130200
X341500Y130300
X353900Y130400
X360600Y123900
X358000Y129500
X357400Y126100
X329700Y129500
X332100Y129700
X302100Y143100
X307700Y143500
X314900Y143700
X321600Y143800
X361100Y130000
X360700Y126700
X473600Y109700
X467600Y118200
X475800Y103340
X336000Y78500
X339000Y77500
X340000Y74500
X336000Y80000
X483083Y119100
X336000Y86000
X451500Y110100
X471000Y91600
X336000Y89000
X335000Y70000
X334010Y74070
X333100Y75100
X333800Y71400
X332300Y72600
X331100Y73700
X389000Y123000
X321500Y104500
X458500Y115500
X466200Y118200
X465900Y115900
X304000Y111000
X307000Y111000
X310050Y111000
X313000Y111000
X307000Y109000
X311000Y109000
X304000Y86000
X307000Y86000
X311000Y86000
X304000Y84000
X307000Y84000
X311000Y84000
X301000Y36000
X304000Y36000
X308000Y36000
X312000Y36000
X310050Y33990
X306000Y34000
X304000Y61000
X306400Y61000
X311000Y61000
X306400Y59000
X304000Y59000
X447300Y94500
X446500Y94500
X445800Y94500
X448700Y94400
X446200Y101700
X446100Y102800
X446200Y104870
X446200Y106000
X445500Y107600
X316180Y22020
X315900Y97200
X442000Y107200
X442900Y107600
X446450Y107600
X315800Y47700
X315700Y72000
X446000Y109900
X449300Y107600
X323200Y31300
X325700Y31800
X318800Y34400
X445190Y104860
X323200Y56200
X327500Y57000
X320600Y59600
X323200Y81200
X327500Y81900
X447060Y104870
X448900Y104700
X320600Y84500
X321800Y111700
X323200Y106300
X327500Y107200
X438700Y100300
X438700Y99400
X475787Y79300
X455600Y119153
X475153Y79344
X455600Y119847
X476805Y78500
X456974Y115674
X476051Y78500
X456526Y116126
X475144Y76547
X457553Y103600
X475134Y75923
X457647Y104300
X475044Y74623
X459600Y104200
X475044Y75247
X459000Y104000
X475107Y73947
X465500Y104400
X475107Y73333
X465700Y103800
X435100Y66379
X440400Y68300
X440800Y67000
X440800Y68900
X470000Y104000
X439800Y98300
X472500Y66500
X447000Y72500
X476100Y105400
X481000Y100500
X471000Y66500
X451000Y71500
X453100Y125800
X453100Y130400
X426900Y129500
X458200Y126900
X427300Y127400
X428000Y139200
X461900Y126400
X428400Y129900
X465500Y126300
X428900Y127500
X469200Y126300
X426909Y125409
X472700Y126300
X427600Y124800
X476300Y126300
X428900Y124800
X479900Y126300
X428200Y122700
X430700Y117400
X424400Y121100
X439200Y118400
X423900Y122800
X430700Y121400
X423400Y125200
X439200Y122400
X422900Y126580
X430700Y125400
X422900Y127400
X439200Y126400
X423400Y129700
X430800Y129400
X424400Y130790
X439500Y130700
X424900Y131800
X433000Y67996
X440500Y69600
X444800Y129400
X444800Y125400
X444800Y121400
X444800Y117400
X435700Y128600
X435700Y124600
X435700Y120400
X435700Y116500
X239000Y30500
X201000Y29000
X199000Y30500
X161000Y29000
X159000Y30500
X121000Y29000
X119000Y30500
X81000Y29000
X79000Y30500
X41000Y29000
X43000Y128000
X79000Y129500
X81000Y131000
X119000Y129500
X121000Y131000
X159000Y129500
X161000Y131000
X199000Y129500
X201000Y131000
X239000Y129500
X348500Y77000
X342500Y77000
X343500Y79000
X342500Y81000
X343500Y83000
X342500Y85000
X343500Y87000
X342500Y88900
X343482Y90982
X342518Y93018
X343500Y95000
X342500Y97000
X343500Y99000
X342500Y101000
X343500Y103000
X342500Y105000
X343500Y107110
X311750Y115480
X310300Y113900
X311000Y91100
X310121Y88900
X311000Y66100
X310200Y63900
X311000Y41100
X310200Y39000
X289200Y23900
X241000Y29000
X356300Y107100
X350200Y107000
X350000Y103000
X349000Y104611
X350000Y99000
X349000Y101000
X350000Y95000
X349000Y97000
X350000Y87000
X349000Y89000
X350000Y83000
X349000Y85000
X350000Y79000
X349000Y81000
X470260Y91359
X355500Y77000
X356500Y79000
X355500Y81000
X356400Y83000
X355500Y85000
X356400Y87000
X355500Y89000
X356400Y95000
X355500Y97000
X356500Y99000
X355500Y101000
X356500Y103000
X355500Y104591
X468000Y91100
X468800Y91100
X448900Y112300
X449589Y108211
X452300Y100600
X465800Y91500
X356500Y91000
X355500Y93000
X350000Y91000
X349000Y93000
X39000Y30500
X39000Y128000
X321300Y33900
X320000Y31200
X316600Y26600
X324000Y32200
X322400Y32200
X320200Y34800
X324500Y34800
X435200Y69100
X322100Y109600
X325900Y109800
X440800Y71100
X323000Y58700
X320000Y56100
X315600Y51100
X323100Y83600
X320000Y81200
X315600Y76000
X325800Y57400
X324200Y57400
X322000Y59500
X326300Y59800
X437800Y69300
X325800Y82300
X324200Y82300
X323100Y108700
X320000Y106200
X315700Y101100
X325800Y107400
X324200Y107400
X322000Y84500
X326300Y84800
X434600Y72100
X439900Y96300
X451300Y104100
X447987Y95912
X452000Y97500
X439900Y95000
X451300Y99400
X453700Y97100
X440600Y101800
X456500Y99400
X381200Y125000
X441600Y104850
X332000Y33500
X317000Y53500
X319000Y52500
X322000Y52500
X325000Y53000
X322000Y54500
X318500Y56000
X329500Y49000
X316500Y79000
X318000Y77500
X320500Y77500
X323000Y77500
X324000Y79500
X321000Y79500
X318500Y81000
X327500Y77500
X304500Y109000
X317000Y104000
X318500Y102500
X321500Y102500
X324500Y102500
X319000Y105500
X336000Y91000
X334000Y93000
X332500Y94500
X330500Y96500
X328500Y98500
X330000Y101000
X331500Y99500
X333000Y98000
X334000Y97000
X336000Y95000
X338000Y93000
X327500Y100000
X329000Y105500
X329000Y81000
X329000Y56000
X312000Y33000
X313500Y31000
X315000Y29500
X317000Y28500
X320000Y28500
X322500Y28500
X318000Y30500
X316500Y31500
X315000Y33500
X313500Y35000
X325000Y28500
X327500Y28500
X335500Y33500
X334000Y32000
X332500Y30500
X333500Y35500
X311000Y59000
X304000Y34000
X308000Y34000
X306000Y36000
X310050Y35990
X344500Y46000
X308100Y59100
X308200Y61000
X313500Y61000
X313500Y86000
X337500Y73000
X291000Y16000
X301000Y16000
X311000Y16000
X321000Y16000
X331000Y16000
X341000Y16000
X351000Y16000
X361000Y16000
X371000Y16000
X381000Y16000
X391000Y16000
X401000Y16000
X411000Y16000
X421000Y16000
X431000Y16000
X441000Y16000
X451000Y16000
X461000Y16000
X95500Y139500
X471000Y16000
X481000Y16000
X296000Y16000
X306000Y16000
X316000Y16000
X326000Y16000
X336000Y16000
X346000Y16000
X356000Y16000
X366000Y16000
X376000Y16000
X386000Y16000
X396000Y16000
X406000Y16000
X416000Y16000
X426000Y16000
X436000Y16000
X446000Y16000
X456000Y16000
X466000Y16000
X476000Y16000
X291000Y101000
X291000Y91000
X291000Y81000
X291000Y71000
X291000Y51000
X291000Y41000
X291000Y31000
X291000Y21000
X291400Y115300
X291000Y106000
X291000Y96000
X291000Y66000
X291000Y56000
X291000Y46000
X291000Y26000
X296000Y116000
X301000Y116000
X306000Y116000
X310900Y113800
X336000Y116000
X345000Y20000
X335000Y20000
X305000Y30000
X305000Y45000
X305000Y55000
X305000Y70000
X305000Y80000
X305000Y75000
X300000Y95000
X305000Y100000
X300000Y50000
X340000Y25000
X340000Y30000
X335000Y67500
X337000Y67500
X330400Y51100
X327300Y50000
X328700Y51600
X323900Y52400
X325400Y77600
X325700Y101600
X305000Y90000
X305000Y20000
X451000Y130200
X452100Y94600
X449300Y93900
X461000Y105600
X342000Y68500
X343500Y67000
X345500Y65000
X347000Y63500
X348500Y62000
X350000Y60500
X351500Y59000
X354000Y59000
X357000Y59000
X360000Y59000
X363000Y59000
X366000Y59000
X369000Y59000
X372000Y59000
X375000Y59000
X378000Y59000
X381000Y59000
X384000Y59000
X387000Y59000
X390000Y59000
X393000Y59000
X396000Y59000
X399000Y59000
X402000Y59000
X405000Y59000
X408000Y59000
X411000Y59000
X414000Y59000
X417000Y59000
X420000Y59000
X423000Y59000
X426000Y59000
X429000Y59000
X432000Y59000
X435000Y59000
X438000Y59000
X441000Y59000
X444000Y59000
X447000Y59000
X450000Y59000
X453000Y59000
X456000Y59000
X459000Y59000
X462000Y59000
X465000Y59000
X468000Y59000
X471000Y59000
X474000Y59000
X477000Y59000
X355000Y61000
X358000Y61000
X361000Y61000
X364000Y61000
X367000Y61000
X370000Y61000
X373000Y61000
X376000Y61000
X379000Y61000
X382000Y61000
X385000Y61000
X388000Y61000
X391000Y61000
X394000Y61000
X397000Y61000
X400000Y61000
X403000Y61000
X406000Y61000
X409000Y61000
X412000Y61000
X415000Y61000
X418000Y61000
X421000Y61000
X424000Y61000
X427000Y61000
X430000Y61000
X433000Y61000
X436000Y61000
X439000Y61000
X442000Y61000
X445000Y61000
X448000Y61000
X451000Y61000
X454000Y61000
X457000Y61000
X460000Y61000
X463000Y61000
X466000Y61000
X469000Y61000
X472000Y61000
X475000Y61000
X343000Y71500
X344500Y70000
X346500Y68000
X348000Y66500
X349500Y65000
X351000Y63500
X352500Y62000
X349000Y44000
X352000Y44000
X355000Y44000
X358000Y44000
X361000Y44000
X364000Y44000
X367000Y44000
X370000Y44000
X373000Y44000
X376000Y44000
X379000Y44000
X382000Y44000
X385000Y44000
X388000Y44000
X391000Y44000
X394000Y44000
X397000Y44000
X400000Y44000
X403000Y44000
X406000Y44000
X409000Y44000
X412000Y44000
X415000Y44000
X418000Y44000
X421000Y44000
X424000Y44000
X427000Y44000
X430000Y44000
X433000Y44000
X436000Y44000
X439000Y44000
X442000Y44000
X445000Y44000
X448000Y44000
X451000Y44000
X454000Y44000
X457000Y44000
X460000Y44000
X463000Y44000
X466000Y44000
X469000Y44000
X472000Y44000
X350000Y46000
X353000Y46000
X356000Y46000
X359000Y46000
X362000Y46000
X365000Y46000
X368000Y46000
X371000Y46000
X374000Y46000
X377000Y46000
X380000Y46000
X383000Y46000
X386000Y46000
X389000Y46000
X392000Y46000
X395000Y46000
X398000Y46000
X401000Y46000
X404000Y46000
X407000Y46000
X410000Y46000
X413000Y46000
X416000Y46000
X419000Y46000
X422000Y46000
X425000Y46000
X428000Y46000
X431000Y46000
X434000Y46000
X437000Y46000
X440000Y46000
X443000Y46000
X446000Y46000
X449000Y46000
X452000Y46000
X455000Y46000
X458000Y46000
X461000Y46000
X464000Y46000
X467000Y46000
X470000Y46000
X349000Y49000
X352000Y49000
X355000Y49000
X358000Y49000
X361000Y49000
X364000Y49000
X367000Y49000
X370000Y49000
X373000Y49000
X376000Y49000
X379000Y49000
X382000Y49000
X385000Y49000
X388000Y49000
X473500Y100500
M30