G04 EAGLE Gerber RS-274X export*
G75*
%MOMM*%
%FSLAX34Y34*%
%LPD*%
%INSilkscreen Bottom*%
%IPPOS*%
%AMOC8*
5,1,8,0,0,1.08239X$1,22.5*%
G01*
%ADD10C,0.254000*%


D10*
X2161096Y1402906D02*
X2158190Y1405230D01*
X2158190Y1394770D01*
X2161096Y1394770D02*
X2155284Y1394770D01*
X2150291Y1394770D02*
X2150291Y1395351D01*
X2149709Y1395351D01*
X2149709Y1394770D01*
X2150291Y1394770D01*
X2144716Y1400581D02*
X2141229Y1400581D01*
X2141135Y1400579D01*
X2141042Y1400573D01*
X2140949Y1400564D01*
X2140856Y1400551D01*
X2140764Y1400534D01*
X2140673Y1400513D01*
X2140582Y1400489D01*
X2140493Y1400461D01*
X2140405Y1400430D01*
X2140318Y1400395D01*
X2140233Y1400357D01*
X2140149Y1400315D01*
X2140067Y1400270D01*
X2139987Y1400221D01*
X2139909Y1400170D01*
X2139833Y1400115D01*
X2139759Y1400057D01*
X2139688Y1399997D01*
X2139619Y1399933D01*
X2139553Y1399867D01*
X2139489Y1399798D01*
X2139429Y1399727D01*
X2139371Y1399653D01*
X2139316Y1399577D01*
X2139265Y1399499D01*
X2139216Y1399419D01*
X2139171Y1399337D01*
X2139129Y1399253D01*
X2139091Y1399168D01*
X2139056Y1399081D01*
X2139025Y1398993D01*
X2138997Y1398904D01*
X2138973Y1398813D01*
X2138952Y1398722D01*
X2138935Y1398630D01*
X2138922Y1398537D01*
X2138913Y1398444D01*
X2138907Y1398351D01*
X2138905Y1398257D01*
X2138904Y1398257D02*
X2138904Y1397676D01*
X2138906Y1397570D01*
X2138912Y1397464D01*
X2138921Y1397358D01*
X2138935Y1397253D01*
X2138952Y1397148D01*
X2138974Y1397044D01*
X2138998Y1396941D01*
X2139027Y1396839D01*
X2139060Y1396738D01*
X2139096Y1396638D01*
X2139135Y1396539D01*
X2139179Y1396443D01*
X2139226Y1396347D01*
X2139276Y1396254D01*
X2139329Y1396162D01*
X2139386Y1396073D01*
X2139447Y1395985D01*
X2139510Y1395900D01*
X2139576Y1395817D01*
X2139646Y1395737D01*
X2139718Y1395659D01*
X2139793Y1395584D01*
X2139871Y1395512D01*
X2139951Y1395442D01*
X2140034Y1395376D01*
X2140119Y1395313D01*
X2140207Y1395252D01*
X2140296Y1395195D01*
X2140388Y1395142D01*
X2140481Y1395092D01*
X2140577Y1395045D01*
X2140673Y1395001D01*
X2140772Y1394962D01*
X2140872Y1394926D01*
X2140973Y1394893D01*
X2141075Y1394864D01*
X2141178Y1394840D01*
X2141282Y1394818D01*
X2141387Y1394801D01*
X2141492Y1394787D01*
X2141598Y1394778D01*
X2141704Y1394772D01*
X2141810Y1394770D01*
X2141916Y1394772D01*
X2142022Y1394778D01*
X2142128Y1394787D01*
X2142233Y1394801D01*
X2142338Y1394818D01*
X2142442Y1394840D01*
X2142545Y1394864D01*
X2142647Y1394893D01*
X2142748Y1394926D01*
X2142848Y1394962D01*
X2142947Y1395001D01*
X2143043Y1395045D01*
X2143139Y1395092D01*
X2143232Y1395142D01*
X2143324Y1395195D01*
X2143413Y1395252D01*
X2143501Y1395313D01*
X2143586Y1395376D01*
X2143669Y1395442D01*
X2143749Y1395512D01*
X2143827Y1395584D01*
X2143902Y1395659D01*
X2143974Y1395737D01*
X2144044Y1395817D01*
X2144110Y1395900D01*
X2144173Y1395985D01*
X2144234Y1396073D01*
X2144291Y1396162D01*
X2144344Y1396254D01*
X2144394Y1396347D01*
X2144441Y1396443D01*
X2144485Y1396539D01*
X2144524Y1396638D01*
X2144560Y1396738D01*
X2144593Y1396839D01*
X2144622Y1396941D01*
X2144646Y1397044D01*
X2144668Y1397148D01*
X2144685Y1397253D01*
X2144699Y1397358D01*
X2144708Y1397464D01*
X2144714Y1397570D01*
X2144716Y1397676D01*
X2144716Y1400581D01*
X2144714Y1400716D01*
X2144708Y1400851D01*
X2144698Y1400986D01*
X2144685Y1401121D01*
X2144667Y1401255D01*
X2144645Y1401388D01*
X2144620Y1401521D01*
X2144591Y1401653D01*
X2144558Y1401784D01*
X2144521Y1401914D01*
X2144480Y1402043D01*
X2144436Y1402171D01*
X2144388Y1402297D01*
X2144336Y1402422D01*
X2144280Y1402546D01*
X2144221Y1402667D01*
X2144159Y1402787D01*
X2144093Y1402906D01*
X2144024Y1403022D01*
X2143951Y1403136D01*
X2143875Y1403248D01*
X2143796Y1403357D01*
X2143714Y1403464D01*
X2143628Y1403569D01*
X2143540Y1403672D01*
X2143449Y1403771D01*
X2143354Y1403868D01*
X2143257Y1403963D01*
X2143158Y1404054D01*
X2143055Y1404142D01*
X2142950Y1404228D01*
X2142843Y1404310D01*
X2142734Y1404389D01*
X2142622Y1404465D01*
X2142508Y1404538D01*
X2142392Y1404607D01*
X2142273Y1404673D01*
X2142153Y1404735D01*
X2142032Y1404794D01*
X2141908Y1404850D01*
X2141783Y1404902D01*
X2141657Y1404950D01*
X2141529Y1404994D01*
X2141400Y1405035D01*
X2141270Y1405072D01*
X2141139Y1405105D01*
X2141007Y1405134D01*
X2140874Y1405159D01*
X2140741Y1405181D01*
X2140607Y1405199D01*
X2140472Y1405212D01*
X2140337Y1405222D01*
X2140202Y1405228D01*
X2140067Y1405230D01*
M02*
