G04 EAGLE Gerber RS-274X export*
G75*
%MOMM*%
%FSLAX34Y34*%
%LPD*%
%INSoldermask Bottom*%
%IPPOS*%
%AMOC8*
5,1,8,0,0,1.08239X$1,22.5*%
G01*
%ADD10C,0.752400*%
%ADD11C,1.502400*%
%ADD12C,2.552400*%
%ADD13C,2.514600*%
%ADD14C,2.705100*%
%ADD15C,1.752400*%
%ADD16C,1.352400*%
%ADD17C,2.927400*%
%ADD18C,2.927400*%
%ADD19P,3.412126X8X22.500000*%
%ADD20C,1.952400*%
%ADD21C,2.452400*%
%ADD22C,2.724000*%
%ADD23C,2.692400*%
%ADD24C,4.152800*%
%ADD25C,1.600200*%
%ADD26P,1.950900X8X22.500000*%
%ADD27R,1.802400X1.802400*%
%ADD28P,1.979475X8X22.500000*%
%ADD29C,1.524000*%


D10*
X4754000Y1447000D03*
X4762500Y1447000D03*
X4771000Y1447000D03*
X4779500Y1447000D03*
X4788000Y1447000D03*
X4796500Y1447000D03*
X4745500Y1447000D03*
X4805000Y1447000D03*
X4198500Y1447000D03*
X4207000Y1447000D03*
X4215500Y1447000D03*
X4224000Y1447000D03*
X4232500Y1447000D03*
X4241000Y1447000D03*
X4190000Y1447000D03*
X4249500Y1447000D03*
X3814500Y1447000D03*
X3823000Y1447000D03*
X3831500Y1447000D03*
X3840000Y1447000D03*
X3848500Y1447000D03*
X3857000Y1447000D03*
X3806000Y1447000D03*
X3865500Y1447000D03*
X3305500Y1447000D03*
X3314000Y1447000D03*
X3322500Y1447000D03*
X3331000Y1447000D03*
X3339500Y1447000D03*
X3348000Y1447000D03*
X3297000Y1447000D03*
X3356500Y1447000D03*
X3092500Y1447000D03*
X3101000Y1447000D03*
X3109500Y1447000D03*
X3118000Y1447000D03*
X3126500Y1447000D03*
X3135000Y1447000D03*
X3084000Y1447000D03*
X3143500Y1447000D03*
X2604500Y1447000D03*
X2613000Y1447000D03*
X2621500Y1447000D03*
X2630000Y1447000D03*
X2638500Y1447000D03*
X2647000Y1447000D03*
X2596000Y1447000D03*
X2655500Y1447000D03*
X2107500Y1447000D03*
X2116000Y1447000D03*
X2124500Y1447000D03*
X2133000Y1447000D03*
X2141500Y1447000D03*
X2150000Y1447000D03*
X2099000Y1447000D03*
X2158500Y1447000D03*
X1717500Y1447000D03*
X1726000Y1447000D03*
X1734500Y1447000D03*
X1743000Y1447000D03*
X1751500Y1447000D03*
X1760000Y1447000D03*
X1709000Y1447000D03*
X1768500Y1447000D03*
X1375500Y1447000D03*
X1384000Y1447000D03*
X1392500Y1447000D03*
X1401000Y1447000D03*
X1409500Y1447000D03*
X1418000Y1447000D03*
X1367000Y1447000D03*
X1426500Y1447000D03*
X919500Y1447000D03*
X928000Y1447000D03*
X936500Y1447000D03*
X945000Y1447000D03*
X953500Y1447000D03*
X962000Y1447000D03*
X911000Y1447000D03*
X970500Y1447000D03*
X459500Y1447000D03*
X468000Y1447000D03*
X476500Y1447000D03*
X485000Y1447000D03*
X493500Y1447000D03*
X502000Y1447000D03*
X451000Y1447000D03*
X510500Y1447000D03*
X129500Y1447000D03*
X138000Y1447000D03*
X146500Y1447000D03*
X155000Y1447000D03*
X163500Y1447000D03*
X172000Y1447000D03*
X121000Y1447000D03*
X180500Y1447000D03*
X126500Y153000D03*
X118000Y153000D03*
X109500Y153000D03*
X101000Y153000D03*
X92500Y153000D03*
X84000Y153000D03*
X135000Y153000D03*
X75500Y153000D03*
X526500Y153000D03*
X518000Y153000D03*
X509500Y153000D03*
X501000Y153000D03*
X492500Y153000D03*
X484000Y153000D03*
X535000Y153000D03*
X475500Y153000D03*
X926500Y153000D03*
X918000Y153000D03*
X909500Y153000D03*
X901000Y153000D03*
X892500Y153000D03*
X884000Y153000D03*
X935000Y153000D03*
X875500Y153000D03*
X1434500Y153000D03*
X1426000Y153000D03*
X1417500Y153000D03*
X1409000Y153000D03*
X1400500Y153000D03*
X1392000Y153000D03*
X1443000Y153000D03*
X1383500Y153000D03*
X1932500Y153000D03*
X1924000Y153000D03*
X1915500Y153000D03*
X1907000Y153000D03*
X1898500Y153000D03*
X1890000Y153000D03*
X1941000Y153000D03*
X1881500Y153000D03*
X2414500Y153000D03*
X2406000Y153000D03*
X2397500Y153000D03*
X2389000Y153000D03*
X2380500Y153000D03*
X2372000Y153000D03*
X2423000Y153000D03*
X2363500Y153000D03*
X2874500Y153000D03*
X2866000Y153000D03*
X2857500Y153000D03*
X2849000Y153000D03*
X2840500Y153000D03*
X2832000Y153000D03*
X2883000Y153000D03*
X2823500Y153000D03*
X3254500Y153000D03*
X3246000Y153000D03*
X3237500Y153000D03*
X3229000Y153000D03*
X3220500Y153000D03*
X3212000Y153000D03*
X3263000Y153000D03*
X3203500Y153000D03*
X3676500Y153000D03*
X3668000Y153000D03*
X3659500Y153000D03*
X3651000Y153000D03*
X3642500Y153000D03*
X3634000Y153000D03*
X3685000Y153000D03*
X3625500Y153000D03*
X4036500Y153000D03*
X4028000Y153000D03*
X4019500Y153000D03*
X4011000Y153000D03*
X4002500Y153000D03*
X3994000Y153000D03*
X4045000Y153000D03*
X3985500Y153000D03*
X4794500Y153000D03*
X4786000Y153000D03*
X4777500Y153000D03*
X4769000Y153000D03*
X4760500Y153000D03*
X4752000Y153000D03*
X4803000Y153000D03*
X4743500Y153000D03*
X4422500Y153000D03*
X4414000Y153000D03*
X4405500Y153000D03*
X4397000Y153000D03*
X4388500Y153000D03*
X4380000Y153000D03*
X4431000Y153000D03*
X4371500Y153000D03*
D11*
X400000Y1050000D03*
D12*
X434300Y1084300D03*
X365700Y1084300D03*
X365700Y1015700D03*
X434300Y1015700D03*
D11*
X800000Y1050000D03*
D12*
X834300Y1084300D03*
X765700Y1084300D03*
X765700Y1015700D03*
X834300Y1015700D03*
D11*
X2000000Y550000D03*
D12*
X2034300Y584300D03*
X1965700Y584300D03*
X1965700Y515700D03*
X2034300Y515700D03*
D11*
X2400000Y550000D03*
D12*
X2434300Y584300D03*
X2365700Y584300D03*
X2365700Y515700D03*
X2434300Y515700D03*
D11*
X1200000Y1050000D03*
D12*
X1234300Y1084300D03*
X1165700Y1084300D03*
X1165700Y1015700D03*
X1234300Y1015700D03*
D11*
X1600000Y1050000D03*
D12*
X1634300Y1084300D03*
X1565700Y1084300D03*
X1565700Y1015700D03*
X1634300Y1015700D03*
D11*
X2000000Y1050000D03*
D12*
X2034300Y1084300D03*
X1965700Y1084300D03*
X1965700Y1015700D03*
X2034300Y1015700D03*
D11*
X2400000Y1050000D03*
D12*
X2434300Y1084300D03*
X2365700Y1084300D03*
X2365700Y1015700D03*
X2434300Y1015700D03*
D11*
X400000Y550000D03*
D12*
X434300Y584300D03*
X365700Y584300D03*
X365700Y515700D03*
X434300Y515700D03*
D11*
X800000Y550000D03*
D12*
X834300Y584300D03*
X765700Y584300D03*
X765700Y515700D03*
X834300Y515700D03*
D11*
X1200000Y550000D03*
D12*
X1234300Y584300D03*
X1165700Y584300D03*
X1165700Y515700D03*
X1234300Y515700D03*
D11*
X1600000Y550000D03*
D12*
X1634300Y584300D03*
X1565700Y584300D03*
X1565700Y515700D03*
X1634300Y515700D03*
D13*
X4000000Y350000D03*
D14*
X3974600Y375400D03*
X4025400Y375400D03*
X3974600Y324600D03*
X4025400Y324600D03*
D13*
X2950000Y1100000D03*
D14*
X2924600Y1125400D03*
X2975400Y1125400D03*
X2924600Y1074600D03*
X2975400Y1074600D03*
D13*
X3800000Y350000D03*
D14*
X3774600Y375400D03*
X3825400Y375400D03*
X3774600Y324600D03*
X3825400Y324600D03*
D13*
X3600000Y350000D03*
D14*
X3574600Y375400D03*
X3625400Y375400D03*
X3574600Y324600D03*
X3625400Y324600D03*
D13*
X2950000Y350000D03*
D14*
X2924600Y375400D03*
X2975400Y375400D03*
X2924600Y324600D03*
X2975400Y324600D03*
D13*
X2950000Y600000D03*
D14*
X2924600Y625400D03*
X2975400Y625400D03*
X2924600Y574600D03*
X2975400Y574600D03*
D13*
X2950000Y850000D03*
D14*
X2924600Y875400D03*
X2975400Y875400D03*
X2924600Y824600D03*
X2975400Y824600D03*
D15*
X4799000Y1060000D03*
X4729000Y1060000D03*
D16*
X4800000Y250000D03*
X4787300Y262700D03*
X4787300Y237300D03*
X4812700Y237300D03*
X4812700Y262700D03*
X4800000Y300000D03*
X4787300Y312700D03*
X4787300Y287300D03*
X4812700Y287300D03*
X4812700Y312700D03*
X4800000Y350000D03*
X4787300Y362700D03*
X4787300Y337300D03*
X4812700Y337300D03*
X4812700Y362700D03*
X4800000Y600000D03*
X4787300Y612700D03*
X4787300Y587300D03*
X4812700Y587300D03*
X4812700Y612700D03*
X4800000Y550000D03*
X4787300Y562700D03*
X4787300Y537300D03*
X4812700Y537300D03*
X4812700Y562700D03*
X4800000Y500000D03*
X4787300Y512700D03*
X4787300Y487300D03*
X4812700Y487300D03*
X4812700Y512700D03*
X4800000Y450000D03*
X4787300Y462700D03*
X4787300Y437300D03*
X4812700Y437300D03*
X4812700Y462700D03*
D17*
X3247000Y631125D02*
X3247000Y658875D01*
X3294000Y658875D02*
X3294000Y631125D01*
X3200000Y631125D02*
X3200000Y658875D01*
D18*
X3325750Y660900D03*
X3325750Y629100D03*
X3168250Y660900D03*
X3168250Y629100D03*
D17*
X3247000Y881125D02*
X3247000Y908875D01*
X3294000Y908875D02*
X3294000Y881125D01*
X3200000Y881125D02*
X3200000Y908875D01*
D18*
X3325750Y910900D03*
X3325750Y879100D03*
X3168250Y910900D03*
X3168250Y879100D03*
D17*
X3247000Y1131125D02*
X3247000Y1158875D01*
X3294000Y1158875D02*
X3294000Y1131125D01*
X3200000Y1131125D02*
X3200000Y1158875D01*
D18*
X3325750Y1160900D03*
X3325750Y1129100D03*
X3168250Y1160900D03*
X3168250Y1129100D03*
D17*
X3247000Y408875D02*
X3247000Y381125D01*
X3294000Y381125D02*
X3294000Y408875D01*
X3200000Y408875D02*
X3200000Y381125D01*
D18*
X3325750Y410900D03*
X3325750Y379100D03*
X3168250Y410900D03*
X3168250Y379100D03*
D19*
X2950000Y199000D03*
X2285000Y800000D03*
X4561000Y932000D03*
D20*
X4800000Y870000D03*
X4800000Y730000D03*
D21*
X4775000Y896000D03*
X4775000Y704000D03*
D22*
X3770000Y709200D03*
X3770000Y810800D03*
D23*
X3744600Y721900D03*
X3719200Y785400D03*
D24*
X3770000Y760000D03*
D22*
X3770000Y909200D03*
X3770000Y1010800D03*
D23*
X3744600Y921900D03*
X3719200Y985400D03*
D24*
X3770000Y960000D03*
D22*
X3970000Y909200D03*
X3970000Y1010800D03*
D23*
X3944600Y921900D03*
X3919200Y985400D03*
D24*
X3970000Y960000D03*
D22*
X3970000Y709200D03*
X3970000Y810800D03*
D23*
X3944600Y721900D03*
X3919200Y785400D03*
D24*
X3970000Y760000D03*
D25*
X4825100Y1289200D03*
X4799700Y1289200D03*
X4774300Y1289200D03*
X4748900Y1289200D03*
X4723500Y1289200D03*
X4698100Y1289200D03*
X4672700Y1289200D03*
X4647300Y1289200D03*
X4621900Y1289200D03*
X4596500Y1289200D03*
X4571100Y1289200D03*
X4545700Y1289200D03*
X4520300Y1289200D03*
X4494900Y1289200D03*
X4774300Y1136800D03*
X4799700Y1136800D03*
X4825100Y1136800D03*
X4494900Y1136800D03*
X4520300Y1136800D03*
X4545700Y1136800D03*
X4571100Y1136800D03*
X4596500Y1136800D03*
X4621900Y1136800D03*
X4647300Y1136800D03*
X4672700Y1136800D03*
X4698100Y1136800D03*
X4723500Y1136800D03*
X4748900Y1136800D03*
D26*
X3932900Y1350000D03*
D27*
X3907500Y1350000D03*
D26*
X3958300Y1350000D03*
X3983700Y1350000D03*
X4009100Y1350000D03*
X4034500Y1350000D03*
X4059900Y1350000D03*
X4085300Y1350000D03*
X4110700Y1350000D03*
X3907500Y1400800D03*
X3932900Y1400800D03*
X3958300Y1400800D03*
X3983700Y1400800D03*
X4009100Y1400800D03*
X4034500Y1400800D03*
X4059900Y1400800D03*
X4085300Y1400800D03*
X4110700Y1400800D03*
X4483400Y1350000D03*
D27*
X4458000Y1350000D03*
D26*
X4508800Y1350000D03*
X4534200Y1350000D03*
X4559600Y1350000D03*
X4585000Y1350000D03*
X4610400Y1350000D03*
X4635800Y1350000D03*
X4661200Y1350000D03*
X4458000Y1400800D03*
X4483400Y1400800D03*
X4508800Y1400800D03*
X4534200Y1400800D03*
X4559600Y1400800D03*
X4585000Y1400800D03*
X4610400Y1400800D03*
X4635800Y1400800D03*
X4661200Y1400800D03*
D28*
X3675600Y1338300D03*
X3675600Y1363700D03*
X3701000Y1338300D03*
X3701000Y1363700D03*
X3726400Y1338300D03*
X3726400Y1363700D03*
X3751800Y1338300D03*
X3751800Y1363700D03*
X3777200Y1338300D03*
X3777200Y1363700D03*
X3802600Y1338300D03*
X3802600Y1363700D03*
X3828000Y1338300D03*
X3828000Y1363700D03*
X3853400Y1338300D03*
X3853400Y1363700D03*
X4226100Y1338300D03*
X4226100Y1363700D03*
X4251500Y1338300D03*
X4251500Y1363700D03*
X4276900Y1338300D03*
X4276900Y1363700D03*
X4302300Y1338300D03*
X4302300Y1363700D03*
X4327700Y1338300D03*
X4327700Y1363700D03*
X4353100Y1338300D03*
X4353100Y1363700D03*
X4378500Y1338300D03*
X4378500Y1363700D03*
X4403900Y1338300D03*
X4403900Y1363700D03*
D22*
X4170000Y909200D03*
X4170000Y1010800D03*
D23*
X4144600Y921900D03*
X4119200Y985400D03*
D24*
X4170000Y960000D03*
D22*
X4170000Y709200D03*
X4170000Y810800D03*
D23*
X4144600Y721900D03*
X4119200Y785400D03*
D24*
X4170000Y760000D03*
D28*
X2846300Y1338300D03*
X2846300Y1363700D03*
X2871700Y1338300D03*
X2871700Y1363700D03*
X2897100Y1338300D03*
X2897100Y1363700D03*
X2922500Y1338300D03*
X2922500Y1363700D03*
X2947900Y1338300D03*
X2947900Y1363700D03*
X2973300Y1338300D03*
X2973300Y1363700D03*
X2998700Y1338300D03*
X2998700Y1363700D03*
X3024100Y1338300D03*
X3024100Y1363700D03*
X3049500Y1338300D03*
X3049500Y1363700D03*
X3074900Y1338300D03*
X3074900Y1363700D03*
X3100300Y1338300D03*
X3100300Y1363700D03*
X3125700Y1338300D03*
X3125700Y1363700D03*
D19*
X4460000Y915000D03*
X4530000Y650000D03*
D29*
X3995858Y1242000D02*
X3982142Y1242000D01*
X3982142Y1267400D02*
X3995858Y1267400D01*
D26*
X3205400Y1350000D03*
D27*
X3180000Y1350000D03*
D26*
X3230800Y1350000D03*
X3256200Y1350000D03*
X3281600Y1350000D03*
X3307000Y1350000D03*
X3332400Y1350000D03*
X3357800Y1350000D03*
X3383200Y1350000D03*
X3180000Y1400800D03*
X3408600Y1350000D03*
X3434000Y1350000D03*
X3459400Y1350000D03*
X3484800Y1350000D03*
X3510200Y1350000D03*
X3535600Y1350000D03*
X3561000Y1350000D03*
X3205400Y1400800D03*
X3230800Y1400800D03*
X3256200Y1400800D03*
X3281600Y1400800D03*
X3307000Y1400800D03*
X3332400Y1400800D03*
X3357800Y1400800D03*
X3383200Y1400800D03*
X3408600Y1400800D03*
X3434000Y1400800D03*
X3459400Y1400800D03*
X3484800Y1400800D03*
X3510200Y1400800D03*
X3535600Y1400800D03*
X3561000Y1400800D03*
M02*
